<mxfile host="Electron" modified="2024-09-18T20:19:16.033Z" agent="Mozilla/5.0 (Windows NT 10.0; Win64; x64) AppleWebKit/537.36 (KHTML, like Gecko) draw.io/24.5.3 Chrome/124.0.6367.207 Electron/30.0.6 Safari/537.36" etag="SZO2V_Cb6dO6ShXPHxqb" version="24.5.3" type="device">
  <diagram name="Page-1" id="PNANJfAMvl4Vf2pxe9G7">
    <mxGraphModel dx="1235" dy="731" grid="1" gridSize="10" guides="1" tooltips="1" connect="1" arrows="1" fold="1" page="1" pageScale="1" pageWidth="1169" pageHeight="827" math="0" shadow="0">
      <root>
        <mxCell id="0" />
        <mxCell id="1" parent="0" />
        <mxCell id="uqHiZwJCg-z39HAQ_ouj-7" style="edgeStyle=orthogonalEdgeStyle;rounded=0;orthogonalLoop=1;jettySize=auto;html=1;exitX=1;exitY=0.5;exitDx=0;exitDy=0;entryX=0;entryY=0.5;entryDx=0;entryDy=0;" edge="1" parent="1" source="uqHiZwJCg-z39HAQ_ouj-1" target="uqHiZwJCg-z39HAQ_ouj-2">
          <mxGeometry relative="1" as="geometry" />
        </mxCell>
        <mxCell id="uqHiZwJCg-z39HAQ_ouj-1" value="ARDUINO MEGA&lt;div&gt;2560&lt;/div&gt;" style="rounded=0;whiteSpace=wrap;html=1;fillColor=none;" vertex="1" parent="1">
          <mxGeometry x="525" y="294" width="120" height="240" as="geometry" />
        </mxCell>
        <mxCell id="uqHiZwJCg-z39HAQ_ouj-6" style="edgeStyle=orthogonalEdgeStyle;rounded=0;orthogonalLoop=1;jettySize=auto;html=1;exitX=0;exitY=0.5;exitDx=0;exitDy=0;entryX=1;entryY=0.5;entryDx=0;entryDy=0;" edge="1" parent="1" source="uqHiZwJCg-z39HAQ_ouj-2" target="uqHiZwJCg-z39HAQ_ouj-1">
          <mxGeometry relative="1" as="geometry" />
        </mxCell>
        <mxCell id="uqHiZwJCg-z39HAQ_ouj-8" value="SERIAL" style="edgeLabel;html=1;align=center;verticalAlign=middle;resizable=0;points=[];" vertex="1" connectable="0" parent="uqHiZwJCg-z39HAQ_ouj-6">
          <mxGeometry relative="1" as="geometry">
            <mxPoint as="offset" />
          </mxGeometry>
        </mxCell>
        <mxCell id="uqHiZwJCg-z39HAQ_ouj-2" value="RASPBERRY&lt;div&gt;PI 4&lt;/div&gt;" style="rounded=0;whiteSpace=wrap;html=1;fillColor=none;" vertex="1" parent="1">
          <mxGeometry x="780" y="294" width="120" height="240" as="geometry" />
        </mxCell>
        <mxCell id="uqHiZwJCg-z39HAQ_ouj-18" style="edgeStyle=orthogonalEdgeStyle;rounded=0;orthogonalLoop=1;jettySize=auto;html=1;exitX=0.5;exitY=0;exitDx=0;exitDy=0;entryX=0.5;entryY=1;entryDx=0;entryDy=0;" edge="1" parent="1" source="uqHiZwJCg-z39HAQ_ouj-3" target="uqHiZwJCg-z39HAQ_ouj-1">
          <mxGeometry relative="1" as="geometry" />
        </mxCell>
        <mxCell id="uqHiZwJCg-z39HAQ_ouj-3" value="GUIDE SENSOR&lt;div&gt;DEPAN&lt;/div&gt;" style="rounded=0;whiteSpace=wrap;html=1;fillColor=none;" vertex="1" parent="1">
          <mxGeometry x="417" y="610" width="120" height="120" as="geometry" />
        </mxCell>
        <mxCell id="uqHiZwJCg-z39HAQ_ouj-19" style="edgeStyle=orthogonalEdgeStyle;rounded=0;orthogonalLoop=1;jettySize=auto;html=1;exitX=0.5;exitY=0;exitDx=0;exitDy=0;entryX=0.5;entryY=1;entryDx=0;entryDy=0;" edge="1" parent="1" source="uqHiZwJCg-z39HAQ_ouj-10" target="uqHiZwJCg-z39HAQ_ouj-1">
          <mxGeometry relative="1" as="geometry" />
        </mxCell>
        <mxCell id="uqHiZwJCg-z39HAQ_ouj-20" value="DIGITAL 1 - 16" style="edgeLabel;html=1;align=center;verticalAlign=middle;resizable=0;points=[];" vertex="1" connectable="0" parent="uqHiZwJCg-z39HAQ_ouj-19">
          <mxGeometry x="0.0091" relative="1" as="geometry">
            <mxPoint x="-53" y="-2" as="offset" />
          </mxGeometry>
        </mxCell>
        <mxCell id="uqHiZwJCg-z39HAQ_ouj-10" value="GUIDE SENSOR&lt;div&gt;BELAKANG&lt;/div&gt;" style="rounded=0;whiteSpace=wrap;html=1;fillColor=none;" vertex="1" parent="1">
          <mxGeometry x="632" y="610" width="120" height="120" as="geometry" />
        </mxCell>
        <mxCell id="uqHiZwJCg-z39HAQ_ouj-21" style="edgeStyle=orthogonalEdgeStyle;rounded=0;orthogonalLoop=1;jettySize=auto;html=1;entryX=0;entryY=0.5;entryDx=0;entryDy=0;exitX=1;exitY=0.5;exitDx=0;exitDy=0;" edge="1" parent="1" source="uqHiZwJCg-z39HAQ_ouj-16" target="uqHiZwJCg-z39HAQ_ouj-1">
          <mxGeometry relative="1" as="geometry">
            <Array as="points">
              <mxPoint x="440" y="324" />
              <mxPoint x="440" y="414" />
            </Array>
          </mxGeometry>
        </mxCell>
        <mxCell id="uqHiZwJCg-z39HAQ_ouj-16" value="RFID DEPAN" style="rounded=0;whiteSpace=wrap;html=1;fillColor=none;" vertex="1" parent="1">
          <mxGeometry x="270" y="294" width="120" height="60" as="geometry" />
        </mxCell>
        <mxCell id="uqHiZwJCg-z39HAQ_ouj-22" style="edgeStyle=orthogonalEdgeStyle;rounded=0;orthogonalLoop=1;jettySize=auto;html=1;entryX=0;entryY=0.5;entryDx=0;entryDy=0;exitX=1;exitY=0.5;exitDx=0;exitDy=0;" edge="1" parent="1" source="uqHiZwJCg-z39HAQ_ouj-17" target="uqHiZwJCg-z39HAQ_ouj-1">
          <mxGeometry relative="1" as="geometry">
            <Array as="points">
              <mxPoint x="440" y="504" />
              <mxPoint x="440" y="414" />
            </Array>
          </mxGeometry>
        </mxCell>
        <mxCell id="uqHiZwJCg-z39HAQ_ouj-23" value="SPI" style="edgeLabel;html=1;align=center;verticalAlign=middle;resizable=0;points=[];" vertex="1" connectable="0" parent="uqHiZwJCg-z39HAQ_ouj-22">
          <mxGeometry x="0.6745" y="2" relative="1" as="geometry">
            <mxPoint x="-6" y="2" as="offset" />
          </mxGeometry>
        </mxCell>
        <mxCell id="uqHiZwJCg-z39HAQ_ouj-17" value="RFID BELAKANG" style="rounded=0;whiteSpace=wrap;html=1;fillColor=none;" vertex="1" parent="1">
          <mxGeometry x="270" y="474" width="120" height="60" as="geometry" />
        </mxCell>
        <mxCell id="uqHiZwJCg-z39HAQ_ouj-28" style="edgeStyle=orthogonalEdgeStyle;rounded=0;orthogonalLoop=1;jettySize=auto;html=1;exitX=0.5;exitY=1;exitDx=0;exitDy=0;entryX=0.25;entryY=0;entryDx=0;entryDy=0;" edge="1" parent="1" source="uqHiZwJCg-z39HAQ_ouj-24" target="uqHiZwJCg-z39HAQ_ouj-1">
          <mxGeometry relative="1" as="geometry" />
        </mxCell>
        <mxCell id="uqHiZwJCg-z39HAQ_ouj-31" value="PWM_R" style="edgeLabel;html=1;align=center;verticalAlign=middle;resizable=0;points=[];" vertex="1" connectable="0" parent="uqHiZwJCg-z39HAQ_ouj-28">
          <mxGeometry relative="1" as="geometry">
            <mxPoint as="offset" />
          </mxGeometry>
        </mxCell>
        <mxCell id="uqHiZwJCg-z39HAQ_ouj-34" style="edgeStyle=orthogonalEdgeStyle;rounded=0;orthogonalLoop=1;jettySize=auto;html=1;exitX=0.25;exitY=1;exitDx=0;exitDy=0;entryX=0;entryY=0;entryDx=0;entryDy=0;" edge="1" parent="1" source="uqHiZwJCg-z39HAQ_ouj-24" target="uqHiZwJCg-z39HAQ_ouj-1">
          <mxGeometry relative="1" as="geometry">
            <Array as="points">
              <mxPoint x="447" y="294" />
            </Array>
          </mxGeometry>
        </mxCell>
        <mxCell id="uqHiZwJCg-z39HAQ_ouj-36" value="DIR_R" style="edgeLabel;html=1;align=center;verticalAlign=middle;resizable=0;points=[];" vertex="1" connectable="0" parent="uqHiZwJCg-z39HAQ_ouj-34">
          <mxGeometry relative="1" as="geometry">
            <mxPoint as="offset" />
          </mxGeometry>
        </mxCell>
        <mxCell id="uqHiZwJCg-z39HAQ_ouj-24" value="ESC KANAN" style="rounded=0;whiteSpace=wrap;html=1;fillColor=none;" vertex="1" parent="1">
          <mxGeometry x="417" y="100" width="120" height="120" as="geometry" />
        </mxCell>
        <mxCell id="uqHiZwJCg-z39HAQ_ouj-29" style="edgeStyle=orthogonalEdgeStyle;rounded=0;orthogonalLoop=1;jettySize=auto;html=1;exitX=0.5;exitY=1;exitDx=0;exitDy=0;entryX=0.75;entryY=0;entryDx=0;entryDy=0;" edge="1" parent="1" source="uqHiZwJCg-z39HAQ_ouj-25" target="uqHiZwJCg-z39HAQ_ouj-1">
          <mxGeometry relative="1" as="geometry" />
        </mxCell>
        <mxCell id="uqHiZwJCg-z39HAQ_ouj-32" value="PWM_L" style="edgeLabel;html=1;align=center;verticalAlign=middle;resizable=0;points=[];" vertex="1" connectable="0" parent="uqHiZwJCg-z39HAQ_ouj-29">
          <mxGeometry relative="1" as="geometry">
            <mxPoint as="offset" />
          </mxGeometry>
        </mxCell>
        <mxCell id="uqHiZwJCg-z39HAQ_ouj-35" style="edgeStyle=orthogonalEdgeStyle;rounded=0;orthogonalLoop=1;jettySize=auto;html=1;exitX=0.75;exitY=1;exitDx=0;exitDy=0;entryX=1;entryY=0;entryDx=0;entryDy=0;" edge="1" parent="1" source="uqHiZwJCg-z39HAQ_ouj-25" target="uqHiZwJCg-z39HAQ_ouj-1">
          <mxGeometry relative="1" as="geometry">
            <Array as="points">
              <mxPoint x="722" y="290" />
              <mxPoint x="645" y="290" />
            </Array>
          </mxGeometry>
        </mxCell>
        <mxCell id="uqHiZwJCg-z39HAQ_ouj-37" value="DIR_L" style="edgeLabel;html=1;align=center;verticalAlign=middle;resizable=0;points=[];" vertex="1" connectable="0" parent="uqHiZwJCg-z39HAQ_ouj-35">
          <mxGeometry relative="1" as="geometry">
            <mxPoint as="offset" />
          </mxGeometry>
        </mxCell>
        <mxCell id="uqHiZwJCg-z39HAQ_ouj-25" value="ESC KIRI" style="rounded=0;whiteSpace=wrap;html=1;fillColor=none;" vertex="1" parent="1">
          <mxGeometry x="632" y="100" width="120" height="120" as="geometry" />
        </mxCell>
      </root>
    </mxGraphModel>
  </diagram>
</mxfile>
